<svg xmlns="http://www.w3.org/2000/svg" viewBox="0 0 128 90" role="img" aria-label="Salesforce">
  <path fill="#00A1E0" d="M34.2 18.4c1.1-9.8 9.2-17.4 19.2-17.4 4.1 0 7.9 1.3 11 3.5 4.8-7.6 14.8-10.4 22.5-5.6s10.4 14.8 5.6 22.5c8.6 1.7 14.2 10.4 12.5 19-1.7 8.6-10.4 14.2-19 12.5-4.1 8.6-14.3 12.1-22.9 8-8.6-4.1-12.1-14.3-8-22.9-11.1 2.7-22.4-4.8-25.1-15.9-.7-3.1-.4-6.3 0-9.3z"/>
  <path fill="#032D60" d="M64 72c-14.9 0-27-12.1-27-27s12.1-27 27-27 27 12.1 27 27-12.1 27-27 27zm0-42.8c-8.7 0-15.8 7.1-15.8 15.8S55.3 60.8 64 60.8 79.8 53.7 79.8 45 72.7 29.2 64 29.2z"/>
</svg>
